<svg xmlns="http://www.w3.org/2000/svg" version="1.1" xmlns:xlink="http://www.w3.org/1999/xlink" viewBox="0 0 200 200"><rect width="200" height="200" fill="url('#gradient')"></rect><defs><linearGradient id="gradient" gradientTransform="rotate(45 0.5 0.5)"><stop offset="0%" stop-color="#cfecec"></stop><stop offset="100%" stop-color="#abc7db"></stop></linearGradient></defs><g><g fill="#2a4a46" transform="matrix(8.625175479644362,0,0,8.625175479644362,0.7635634445842783,161.32437367834217)" stroke="#2a4a46" stroke-width="0.2"><path d="M10.03-8.30L10.03-5.66L4.50-5.66L4.50 0L1.07 0L1.07-14.22L10.59-14.22L10.59-11.57L4.50-11.57L4.50-8.30L10.03-8.30ZM20.50-14.22L20.50-5.56L21.94-5.56L21.94-3.02L20.50-3.02L20.50 0L17.21 0L17.21-3.02L11.71-3.02L11.51-5.03L17.21-14.19L17.21-14.22L20.50-14.22ZM17.00-9.60L14.65-5.56L17.21-5.56L17.21-9.93L17.00-9.60Z"></path></g></g></svg>